<?xml version="1.0" encoding="UTF-8"?>
<svg id="Capa_1" xmlns="http://www.w3.org/2000/svg" version="1.1" viewBox="0 0 292.2 59.4">
  <!-- Generator: Adobe Illustrator 29.7.1, SVG Export Plug-In . SVG Version: 2.1.1 Build 8)  -->
  <defs>
    <style>
      .st0 {
        fill: #59b893;
      }

      .st1 {
        fill: #101921;
      }
    </style>
  </defs>
  <path class="st1" d="M19.7,51.4c-2.4,0-4.7-.4-6.7-1.3-2.1-.9-3.9-2-5.4-3.6s-2.8-3.3-3.6-5.3c-.9-2-1.3-4.2-1.3-6.6s.4-4.6,1.3-6.6c.9-2,2-3.8,3.6-5.3,1.5-1.5,3.3-2.7,5.4-3.5,2.1-.8,4.3-1.3,6.7-1.3s4.6.4,6.7,1.3,3.9,2,5.4,3.5c1.5,1.5,2.7,3.3,3.6,5.3.9,2,1.3,4.2,1.3,6.6s-.4,4.5-1.3,6.6c-.9,2-2,3.8-3.6,5.3-1.5,1.5-3.3,2.7-5.4,3.5-2.1.9-4.3,1.3-6.6,1.3ZM19.6,44.9c1.9,0,3.6-.4,5-1.3,1.4-.9,2.6-2,3.4-3.6.8-1.5,1.2-3.3,1.2-5.3s-.2-2.9-.7-4.1-1.1-2.3-2-3.2c-.9-.9-1.9-1.6-3-2.1-1.2-.5-2.5-.7-3.9-.7s-3.6.4-5,1.3c-1.4.8-2.6,2-3.4,3.5-.8,1.5-1.2,3.3-1.2,5.3s.2,2.9.7,4.2,1.1,2.3,1.9,3.2c.8.9,1.9,1.6,3,2.1,1.2.5,2.5.7,3.9.7Z"/>
  <path class="st1" d="M41.1,50.9V18.6h5.1l12.7,19.8h-2.6l12.7-19.8h5.2v32.2h-7.2v-20.1l1.3.3-8.3,12.9h-4.8l-8.2-12.9,1.2-.3v20.1h-7.1Z"/>
  <path class="st1" d="M80.3,50.9V18.6h7.2v32.2h-7.2ZM85.8,39.2v-5.6h6.9c.9,0,1.7-.2,2.4-.5.7-.4,1.3-.9,1.7-1.6.4-.7.6-1.6.6-2.6s-.2-1.8-.6-2.5c-.4-.7-1-1.2-1.7-1.6-.7-.4-1.5-.5-2.4-.5h-6.9v-5.6h8c2,0,3.9.4,5.5,1.2,1.6.8,2.9,2,3.9,3.5s1.4,3.4,1.4,5.5-.5,3.9-1.4,5.5-2.3,2.7-3.9,3.6c-1.6.8-3.5,1.3-5.5,1.3h-8Z"/>
  <path class="st1" d="M104.1,53.4l11.2-37h6.1l-11.2,37h-6.1Z"/>
  <path class="st0" d="M125.5,50.9V18.6h7.1v32.2h-7.1ZM131,50.9v-5.6h7.6c1.4,0,2.5-.4,3.3-1.2.8-.8,1.2-1.8,1.2-3s-.2-1.6-.5-2.2c-.4-.6-.9-1.1-1.5-1.5-.7-.4-1.5-.5-2.4-.5h-7.6v-5.4h7c1.2,0,2.1-.3,2.9-.9s1.1-1.5,1.1-2.7-.4-2.1-1.1-2.7-1.7-.9-2.9-.9h-7v-5.6h8.4c2.1,0,3.8.4,5.3,1.1,1.4.8,2.5,1.8,3.3,3.1.8,1.3,1.1,2.7,1.1,4.2s-.6,3.7-1.9,5c-1.3,1.4-3.2,2.3-5.7,2.8l.2-2.4c2.7.5,4.8,1.6,6.3,3.2,1.5,1.6,2.2,3.5,2.2,5.8s-.4,3.4-1.3,4.8c-.9,1.4-2.1,2.5-3.7,3.4-1.6.8-3.6,1.2-5.9,1.2h-8.3Z"/>
  <path class="st0" d="M152.4,50.9l12.8-32.2h6.5l12.7,32.2h-7.6l-9.7-26.8h2.6l-9.8,26.8h-7.4ZM159.6,45v-5.8h17.6v5.8h-17.6ZM165.1,16.1l-2.3-3.3,7.3-6.8,3.8,5.4-8.8,4.7Z"/>
  <path class="st0" d="M196.8,51.4c-2.6,0-4.9-.4-6.8-1.3-1.9-.9-3.6-2.2-5.2-4l4.7-4.6c1,1.2,2.2,2.1,3.4,2.8,1.3.7,2.7,1,4.4,1s2.7-.3,3.5-.8c.8-.5,1.3-1.3,1.3-2.3s-.3-1.6-.8-2.1-1.3-1-2.2-1.4c-.9-.4-1.9-.8-3-1.1-1.1-.4-2.2-.8-3.2-1.3-1.1-.5-2-1.1-2.9-1.8-.9-.7-1.6-1.6-2.2-2.7-.5-1.1-.8-2.4-.8-4.1s.5-3.7,1.4-5.1,2.3-2.5,4-3.3c1.7-.7,3.7-1.1,5.9-1.1s4.3.4,6.2,1.2c1.9.8,3.4,1.9,4.6,3.2l-4.7,4.6c-1-1-2-1.8-2.9-2.2-1-.5-2.1-.7-3.4-.7s-2.2.2-3,.7-1.1,1.1-1.1,2,.3,1.5.8,2,1.3.9,2.2,1.3c.9.4,1.9.7,3,1.1,1.1.4,2.2.8,3.2,1.3,1.1.5,2,1.1,2.9,1.9.9.7,1.6,1.7,2.2,2.8.5,1.1.8,2.6.8,4.2,0,3.1-1.1,5.5-3.3,7.2-2.2,1.8-5.2,2.6-9.1,2.6Z"/>
  <path class="st0" d="M213.7,50.9V18.6h7.2v32.2h-7.2Z"/>
  <path class="st0" d="M242.4,51.4c-2.4,0-4.6-.4-6.7-1.3-2.1-.8-3.9-2-5.4-3.5-1.5-1.5-2.7-3.3-3.6-5.3-.9-2-1.3-4.2-1.3-6.6s.4-4.5,1.3-6.6c.9-2,2-3.8,3.6-5.3,1.5-1.5,3.3-2.7,5.4-3.5,2.1-.8,4.3-1.3,6.7-1.3s4.8.4,6.8,1.2c2,.8,3.7,1.9,5.2,3.4l-4.8,4.8c-.9-.9-1.9-1.6-3.1-2.1-1.2-.5-2.6-.8-4.2-.8s-2.7.2-3.9.7c-1.2.5-2.2,1.1-3,2-.8.9-1.5,1.9-2,3.2-.5,1.2-.7,2.6-.7,4.1s.2,2.9.7,4.2,1.1,2.3,2,3.2c.8.9,1.8,1.6,3,2.1,1.2.5,2.5.7,3.9.7s3.1-.3,4.3-.8c1.2-.5,2.3-1.2,3.2-2.1l4.8,4.8c-1.6,1.4-3.3,2.6-5.3,3.4-2,.8-4.3,1.2-6.9,1.2Z"/>
  <path class="st0" d="M272.7,51.4c-2.4,0-4.7-.4-6.7-1.3-2.1-.9-3.9-2-5.4-3.6s-2.8-3.3-3.6-5.3c-.9-2-1.3-4.2-1.3-6.6s.4-4.6,1.3-6.6,2-3.8,3.6-5.3c1.5-1.5,3.3-2.7,5.4-3.5,2.1-.8,4.3-1.3,6.7-1.3s4.6.4,6.7,1.3,3.9,2,5.4,3.5c1.5,1.5,2.7,3.3,3.6,5.3.9,2,1.3,4.2,1.3,6.6s-.4,4.5-1.3,6.6c-.9,2-2,3.8-3.6,5.3-1.5,1.5-3.3,2.7-5.4,3.5-2.1.9-4.3,1.3-6.6,1.3ZM272.6,44.9c1.9,0,3.6-.4,5-1.3,1.4-.9,2.6-2,3.4-3.6.8-1.5,1.2-3.3,1.2-5.3s-.2-2.9-.7-4.1-1.1-2.3-2-3.2c-.9-.9-1.9-1.6-3-2.1-1.2-.5-2.5-.7-3.9-.7s-3.6.4-5,1.3c-1.4.8-2.6,2-3.4,3.5s-1.2,3.3-1.2,5.3.2,2.9.7,4.2,1.1,2.3,1.9,3.2c.8.9,1.8,1.6,3,2.1s2.5.7,3.9.7Z"/>
</svg>